<svg
   xmlns:dc="http://purl.org/dc/elements/1.1/"
   xmlns:cc="http://creativecommons.org/ns#"
   xmlns:rdf="http://www.w3.org/1999/02/22-rdf-syntax-ns#"
   xmlns:svg="http://www.w3.org/2000/svg"
   xmlns="http://www.w3.org/2000/svg"
   xmlns:sodipodi="http://sodipodi.sourceforge.net/DTD/sodipodi-0.dtd"
   xmlns:inkscape="http://www.inkscape.org/namespaces/inkscape"
   width="120"
   height="50"
   id="svg2"
   sodipodi:version="0.32"
   inkscape:version="0.46"
   version="1.0"
   sodipodi:docname="OR ANSI Labelled.svg"
   inkscape:output_extension="org.inkscape.output.svg.inkscape">

  <g
     inkscape:label="Layer 1"
     inkscape:groupmode="layer"
     id="layer1">
    <path
       style="fill:#FFF;stroke:#FFF;stroke-width:2;stroke-linecap:butt;stroke-linejoin:miter;stroke-opacity:1"
       d="M 80.03125,25 C 100.03125,25 105.03125,25 105.03125,25"
       id="path3059"
       sodipodi:nodetypes="cc" />
    <path
       style="fill:#FFF;stroke:#FFF;stroke-width:2;stroke-linecap:butt;stroke-linejoin:miter;stroke-opacity:1"
       d="M 41.03125,15 L 15.03125,15"
       id="path3061" />
    <path
       style="fill:#FFF;stroke:#FFF;stroke-width:1.99999988;stroke-linecap:butt;stroke-linejoin:miter;stroke-opacity:1"
       d="M 42.03125,35 L 15.03125,35"
       id="path3944" />
    <g
       id="g2560"
       inkscape:label="Layer 1"
       transform="translate(26.5,-39.5)">
      <path
         style="fill:#FFF;fill-opacity:1;fill-rule:evenodd;stroke:#FFF;stroke-width:3;stroke-linecap:butt;stroke-linejoin:miter;stroke-opacity:1"
         d="M 7.625,44.5 L 9.625,46.9375 C 9.625,46.9375 15.28125,53.937549 15.28125,64.5 C 15.28125,75.062451 9.625,82.0625 9.625,82.0625 L 7.625,84.5 L 10.78125,84.5 L 24.78125,84.5 C 27.189326,84.500001 32.470949,84.524514 38.40625,82.09375 C 44.341551,79.662986 50.942786,74.750484 56.09375,65.21875 L 54.78125,64.5 L 56.09375,63.78125 C 45.790637,44.71559 29.537824,44.5 24.78125,44.5 L 10.78125,44.5 L 7.625,44.5 z M 13.5,47.5 L 24.78125,47.5 C 29.465423,47.5 43.0681,47.369793 52.75,64.5 C 47.983214,72.929075 42.228719,77.18391 37.03125,79.3125 C 31.670589,81.507924 27.189325,81.500001 24.78125,81.5 L 13.53125,81.5 C 15.404838,78.391566 18.28125,72.45065 18.28125,64.5 C 18.28125,56.526646 15.372719,50.599815 13.5,47.5 z"
         id="path4973"
         sodipodi:nodetypes="ccsccccscccccccccsccsc" />
    </g>
  </g>
</svg>

